<svg role="img" viewBox="0 0 24 24" xmlns="http://www.w3.org/2000/svg"><title>Swift</title><path fill="#F05138" d="M7.508 0c-.287 0-.573 0-.86.002-.241.002-.483.003-.724.01-.132.003-.263.009-.395.015A9.154 9.154 0 0 0 4.348.15 5.492 5.492 0 0 0 2.85.645 5.04 5.04 0 0 0 .645 2.848c-.245.48-.4.972-.495 1.5-.093.52-.122 1.05-.136 1.576-.01.241-.01.483-.01.724 0 .287-.002.574-.002.861v12.973c0 .287.002.574.002.861 0 .241 0 .483.01.724.014.526.043 1.057.136 1.576.095.528.25 1.02.495 1.5a5.04 5.04 0 0 0 2.205 2.203c.48.245.972.4 1.5.495.52.093 1.05.122 1.576.136.241.01.483.01.724.01.287 0 .574.002.861.002h8.984c.287 0 .574-.002.861-.002.241 0 .483 0 .724-.01.526-.014 1.057-.043 1.576-.136a5.492 5.492 0 0 0 1.5-.495 5.04 5.04 0 0 0 2.203-2.203c.245-.48.4-.972.495-1.5.093-.52.122-1.05.136-1.576.01-.241.01-.483.01-.724 0-.287.002-.574.002-.861V7.508c0-.287-.002-.574-.002-.861 0-.241 0-.483-.01-.724a9.154 9.154 0 0 0-.136-1.576 5.492 5.492 0 0 0-.495-1.5 5.04 5.04 0 0 0-2.203-2.203 5.492 5.492 0 0 0-1.5-.495A9.154 9.154 0 0 0 18.64.027c-.241-.007-.483-.009-.724-.01-.287-.002-.574-.002-.861-.002h-8.984zM18.365 24c.252 0 .497-.005.739-.01.348-.007.7-.029 1.034-.082.367-.06.714-.177 1.028-.344a3.91 3.91 0 0 0 1.716-1.716c.167-.314.284-.66.344-1.028.053-.333.075-.686.082-1.034.005-.242.01-.487.01-.739V7.873c0-.252-.005-.497-.01-.739a7.618 7.618 0 0 0-.082-1.034 3.907 3.907 0 0 0-.344-1.028 3.44 3.44 0 0 0-.811-.911 3.44 3.44 0 0 0-.905-.805 3.907 3.907 0 0 0-1.028-.344 7.618 7.618 0 0 0-1.034-.082c-.242-.005-.487-.01-.739-.01H7.508c-.252 0-.497.005-.739.01a7.618 7.618 0 0 0-1.034.082 3.907 3.907 0 0 0-1.028.344 3.44 3.44 0 0 0-.905.805 3.44 3.44 0 0 0-.811.91c-.167.315-.284.661-.344 1.029a7.618 7.618 0 0 0-.082 1.034c-.005.242-.01.487-.01.739v12.973c0 .252.005.497.01.739.007.348.029.7.082 1.034.06.367.177.714.344 1.028a3.91 3.91 0 0 0 1.716 1.716c.314.167.66.284 1.028.344.333.053.686.075 1.034.082.242.005.487.01.739.01h8.984zm-6.78-17.438c1.606.085 3.014.746 4.197 1.963 1.259 1.297 1.906 2.84 1.92 4.595-.06 1.686-.71 3.136-1.932 4.314-1.24 1.196-2.706 1.81-4.36 1.827-1.613-.076-3.02-.708-4.186-1.881-1.279-1.285-1.942-2.842-1.969-4.63.068-1.687.733-3.142 1.976-4.325 1.195-1.138 2.608-1.782 4.197-1.91.052-.003.104-.005.157-.007v.054zm-.005-.96c-.095 0-.19.003-.285.008-1.765.143-3.353.88-4.725 2.193-1.38 1.32-2.112 2.917-2.178 4.755v.171c.043 1.993.81 3.68 2.28 5.018 1.317 1.2 2.873 1.87 4.631 1.993h.096c1.843-.07 3.448-.819 4.774-2.226 1.317-1.396 2.009-3.047 2.057-4.912v-.171c-.025-1.94-.786-3.584-2.264-4.891-1.335-1.18-2.888-1.832-4.62-1.938h-.151z"/></svg>
